<svg width="214" height="90" viewBox="0 0 214 90" fill="none" xmlns="http://www.w3.org/2000/svg">
<path d="M17.732 6.244V29.52C17.732 31.8667 17.0133 33.7587 15.576 35.196C14.1387 36.604 12.2173 37.308 9.812 37.308C7.31867 37.308 5.324 36.56 3.828 35.064C2.36133 33.5387 1.628 31.4853 1.628 28.904H4.752C4.78133 30.576 5.192 31.94 5.984 32.996C6.80533 34.052 8.08133 34.58 9.812 34.58C11.4547 34.58 12.672 34.096 13.464 33.128C14.256 32.16 14.652 30.9573 14.652 29.52V6.244H17.732ZM39.293 37.308C36.4477 37.308 33.8664 36.648 31.549 35.328C29.2317 33.9787 27.3984 32.116 26.049 29.74C24.729 27.3347 24.069 24.6213 24.069 21.6C24.069 18.5787 24.729 15.88 26.049 13.504C27.3984 11.0987 29.2317 9.236 31.549 7.916C33.8664 6.56667 36.4477 5.892 39.293 5.892C42.1677 5.892 44.7637 6.56667 47.081 7.916C49.3984 9.236 51.217 11.0987 52.537 13.504C53.857 15.88 54.517 18.5787 54.517 21.6C54.517 24.6213 53.857 27.3347 52.537 29.74C51.217 32.116 49.3984 33.9787 47.081 35.328C44.7637 36.648 42.1677 37.308 39.293 37.308ZM39.293 34.624C41.581 34.624 43.6344 34.096 45.453 33.04C47.2717 31.984 48.709 30.4733 49.765 28.508C50.821 26.5133 51.349 24.2107 51.349 21.6C51.349 18.9893 50.821 16.7013 49.765 14.736C48.709 12.7707 47.2717 11.26 45.453 10.204C43.6344 9.148 41.581 8.62 39.293 8.62C37.005 8.62 34.9517 9.148 33.133 10.204C31.3144 11.26 29.877 12.7707 28.821 14.736C27.765 16.7013 27.237 18.9893 27.237 21.6C27.237 24.2107 27.765 26.5133 28.821 28.508C29.877 30.4733 31.3144 31.984 33.133 33.04C34.9517 34.096 37.005 34.624 39.293 34.624ZM90.2048 6.64V37H87.1248V12.756L76.3008 37H74.0568L63.2328 12.844V37H60.1528V6.64H63.4088L75.1568 32.952L86.9048 6.64H90.2048ZM111.008 37.308C108.163 37.308 105.581 36.648 103.264 35.328C100.947 33.9787 99.1132 32.116 97.7639 29.74C96.4439 27.3347 95.7839 24.6213 95.7839 21.6C95.7839 18.5787 96.4439 15.88 97.7639 13.504C99.1132 11.0987 100.947 9.236 103.264 7.916C105.581 6.56667 108.163 5.892 111.008 5.892C113.883 5.892 116.479 6.56667 118.796 7.916C121.113 9.236 122.932 11.0987 124.252 13.504C125.572 15.88 126.232 18.5787 126.232 21.6C126.232 24.6213 125.572 27.3347 124.252 29.74C122.932 32.116 121.113 33.9787 118.796 35.328C116.479 36.648 113.883 37.308 111.008 37.308ZM111.008 34.624C113.296 34.624 115.349 34.096 117.168 33.04C118.987 31.984 120.424 30.4733 121.48 28.508C122.536 26.5133 123.064 24.2107 123.064 21.6C123.064 18.9893 122.536 16.7013 121.48 14.736C120.424 12.7707 118.987 11.26 117.168 10.204C115.349 9.148 113.296 8.62 111.008 8.62C108.72 8.62 106.667 9.148 104.848 10.204C103.029 11.26 101.592 12.7707 100.536 14.736C99.4799 16.7013 98.9519 18.9893 98.9519 21.6C98.9519 24.2107 99.4799 26.5133 100.536 28.508C101.592 30.4733 103.029 31.984 104.848 33.04C106.667 34.096 108.72 34.624 111.008 34.624ZM148.236 37L140.624 24.152H134.948V37H131.868V6.244H141.108C144.54 6.244 147.136 7.06533 148.896 8.708C150.685 10.3507 151.58 12.5067 151.58 15.176C151.58 17.4053 150.934 19.312 149.644 20.896C148.382 22.4507 146.505 23.4627 144.012 23.932L151.932 37H148.236ZM134.948 21.644H141.152C143.557 21.644 145.361 21.0573 146.564 19.884C147.796 18.7107 148.412 17.1413 148.412 15.176C148.412 13.152 147.825 11.5973 146.652 10.512C145.478 9.39733 143.63 8.84 141.108 8.84H134.948V21.644Z" fill="black"/>
<path d="M72.628 52.244C76.0307 52.244 78.9493 52.86 81.384 54.092C83.8187 55.324 85.6813 57.0987 86.972 59.416C88.2627 61.7333 88.908 64.4907 88.908 67.688C88.908 70.856 88.2627 73.5987 86.972 75.916C85.6813 78.204 83.8187 79.964 81.384 81.196C78.9493 82.3987 76.0307 83 72.628 83H63.52V52.244H72.628ZM72.628 80.448C76.9107 80.448 80.1667 79.3333 82.396 77.104C84.6547 74.8453 85.784 71.7067 85.784 67.688C85.784 63.64 84.6547 60.4867 82.396 58.228C80.1667 55.94 76.9107 54.796 72.628 54.796H66.6V80.448H72.628ZM97.6664 54.752V66.236H109.326V68.788H97.6664V80.448H110.646V83H94.5864V52.2H110.646V54.752H97.6664ZM126.043 83.308C124.019 83.308 122.23 82.956 120.675 82.252C119.15 81.548 117.947 80.5653 117.067 79.304C116.187 78.0427 115.718 76.6347 115.659 75.08H118.915C119.062 76.576 119.722 77.896 120.895 79.04C122.069 80.1547 123.785 80.712 126.043 80.712C128.126 80.712 129.769 80.184 130.971 79.128C132.203 78.0427 132.819 76.6787 132.819 75.036C132.819 73.716 132.482 72.66 131.807 71.868C131.133 71.0467 130.297 70.4453 129.299 70.064C128.302 69.6533 126.923 69.2133 125.163 68.744C123.11 68.1867 121.482 67.644 120.279 67.116C119.077 66.588 118.05 65.7667 117.199 64.652C116.349 63.5373 115.923 62.0267 115.923 60.12C115.923 58.536 116.334 57.128 117.155 55.896C117.977 54.6347 119.135 53.652 120.631 52.948C122.127 52.244 123.843 51.892 125.779 51.892C128.625 51.892 130.913 52.596 132.643 54.004C134.403 55.3827 135.415 57.172 135.679 59.372H132.335C132.13 58.1107 131.441 56.996 130.267 56.028C129.094 55.0307 127.51 54.532 125.515 54.532C123.667 54.532 122.127 55.0307 120.895 56.028C119.663 56.996 119.047 58.3307 119.047 60.032C119.047 61.3227 119.385 62.364 120.059 63.156C120.734 63.948 121.57 64.5493 122.567 64.96C123.594 65.3707 124.973 65.8107 126.703 66.28C128.698 66.8373 130.311 67.3947 131.543 67.952C132.775 68.48 133.817 69.3013 134.667 70.416C135.518 71.5307 135.943 73.0267 135.943 74.904C135.943 76.3413 135.562 77.7053 134.799 78.996C134.037 80.2867 132.907 81.328 131.411 82.12C129.915 82.912 128.126 83.308 126.043 83.308ZM144.975 52.244V83H141.895V52.244H144.975ZM176.15 61.22C175.27 59.196 173.92 57.612 172.102 56.468C170.312 55.2947 168.2 54.708 165.766 54.708C163.478 54.708 161.424 55.236 159.606 56.292C157.787 57.348 156.35 58.8587 155.294 60.824C154.238 62.76 153.71 65.0187 153.71 67.6C153.71 70.1813 154.238 72.4547 155.294 74.42C156.35 76.3853 157.787 77.896 159.606 78.952C161.424 80.008 163.478 80.536 165.766 80.536C167.907 80.536 169.828 80.0813 171.53 79.172C173.26 78.2333 174.639 76.9133 175.666 75.212C176.722 73.4813 177.323 71.472 177.47 69.184H164.534V66.676H180.726V68.92C180.579 71.6187 179.846 74.068 178.526 76.268C177.206 78.4387 175.431 80.1547 173.202 81.416C171.002 82.6773 168.523 83.308 165.766 83.308C162.92 83.308 160.339 82.648 158.022 81.328C155.704 79.9787 153.871 78.116 152.522 75.74C151.202 73.3347 150.542 70.6213 150.542 67.6C150.542 64.5787 151.202 61.88 152.522 59.504C153.871 57.0987 155.704 55.236 158.022 53.916C160.339 52.5667 162.92 51.892 165.766 51.892C169.051 51.892 171.926 52.7133 174.39 54.356C176.854 55.9987 178.643 58.2867 179.758 61.22H176.15ZM209.556 83H206.476L189.448 57.128V83H186.368V52.244H189.448L206.476 78.072V52.244H209.556V83Z" fill="black"/>
</svg>
